# xmcd CD database file
#
# Track frame offsets:
#	150
#	22832
#	47945
#	68482
#	90285
#	111300
#	134402
#	154572
#	174197
#	190205
#	216570
#	244117
#	275862
#	295332
#	316637
#
# Disc length: 4538 seconds
#
# Revision: 6
# Processed by: cddbd v1.5.2PL0 Copyright (c) Steve Scherf et al.
# Submitted via: CDex 1.70beta2
#
DISCID=d111b80f
DTITLE=渡辺　貞夫 - My Dear Life - 50th Anniversary Collection Disc1
DYEAR=2001
DGENRE=Jazz
TTITLE0=タクシー・ブルース
TTITLE1=カリフォルニア・シャワー
TTITLE2=モーニング・アイランド
TTITLE3=ナイス・ショット
TTITLE4=オレンジ・エキスプレス
TTITLE5=コール・ミー
TTITLE6=フィル・アップ・ザ・ナイト
TTITLE7=スティル・アラウンド
TTITLE8=ティップ・アウェイ
TTITLE9=ラウンド・トリップ
TTITLE10=パストラル
TTITLE11=エリス
TTITLE12=メイド・イン・コラソン
TTITLE13=オンリー・イン・マイ・マインド
TTITLE14=マイ・ディア・ライフ (1988 Instrumental Version)
EXTD=YEAR: 2001
EXTT0=
EXTT1=
EXTT2=
EXTT3=
EXTT4=
EXTT5=
EXTT6=
EXTT7=
EXTT8=
EXTT9=
EXTT10=
EXTT11=
EXTT12=
EXTT13=
EXTT14=
PLAYORDER=
